<svg width="251" height="250" viewBox="0 0 251 250" fill="none" xmlns="http://www.w3.org/2000/svg">
<g clip-path="url(#clip0_20_443)">
<path d="M250.5 -0.5H0.5V249.5H250.5V-0.5Z" fill="white"/>
<path opacity="0.38" d="M117.877 12.8577C177.911 16.0851 180.494 80.6385 174.038 105.814C167.583 130.989 216.643 136.799 222.453 178.113C228.263 219.427 190.177 236.857 163.064 237.502C135.952 238.147 114.65 222.009 110.131 201.997C105.613 181.986 92.7017 172.303 70.1081 168.43C47.5145 164.557 6.84595 134.217 13.9469 94.8393C13.9469 94.8393 15.6095 52.9401 54.9389 25.1223C81.4055 6.4029 117.877 12.8577 117.877 12.8577Z" fill="#EFEBFF"/>
<path d="M85.5505 113.927C85.5505 113.927 84.1875 96.547 89.299 84.96C91.3435 82.234 92.707 83.256 92.707 83.256C92.707 83.256 93.3885 90.4125 91.6845 97.228C89.9805 104.044 88.9585 117.334 88.9585 117.334L85.5505 113.927Z" fill="#61A27D"/>
<path d="M84.528 112.564C84.528 112.564 84.187 104.385 75.6675 97.2285C67.148 90.072 65.444 90.072 65.444 90.072C65.444 90.072 72.2595 89.731 77.0305 92.7985C81.8015 95.8655 83.5055 104.385 83.8465 105.748C84.1875 107.111 86.232 112.564 86.232 112.564L84.528 112.564Z" fill="#578B71"/>
<path d="M90.055 113.817C90.055 113.817 91.652 105.788 101.172 100.029C110.693 94.271 112.376 94.5335 112.376 94.5335C112.376 94.5335 105.694 93.1465 100.508 95.442C95.321 97.7375 92.325 105.893 91.778 107.187C91.2315 108.481 88.371 113.554 88.371 113.554L90.055 113.817Z" fill="#578B71"/>
<path d="M86.232 112.564C86.232 112.564 77.3715 83.2565 69.5335 76.4405C69.874 75.418 79.0755 78.485 81.8015 85.9825C84.528 93.4795 85.2095 104.726 86.232 107.793C87.2545 110.86 88.6175 113.587 88.6175 113.587" fill="#7CC97D"/>
<path d="M85.5505 113.927C85.5505 113.927 88.9585 97.91 97.819 92.4575C98.5005 94.502 88.618 111.2 89.64 118.698C90.662 126.195 85.5505 113.927 85.5505 113.927Z" fill="#7CC97D"/>
<path d="M80.685 131.979H93.7905C94.597 126.514 95.2746 121.598 95.4001 119.72C95.6581 115.848 94.353 112.566 93.7045 111.201H80.7711C80.1226 112.566 78.8175 115.848 79.0755 119.72C79.2005 121.598 79.878 126.514 80.685 131.979Z" fill="#A9A7E7"/>
<path d="M200.023 99.342H175.988V131.861H200.023V99.342Z" fill="#24ADB2"/>
<path d="M197.549 99.342H173.513V131.861H197.549V99.342Z" fill="#26C6DA"/>
<path d="M191.54 96.043H167.504V131.861H191.54V96.043Z" fill="#E1543C"/>
<path d="M189.066 96.043H161.496V131.861H189.066V96.043Z" fill="#FF634D"/>
<path d="M189.066 96.043H184.353V131.861H189.066V96.043Z" fill="#EB594D"/>
<path d="M51.4515 104.997C51.4515 104.997 47.6815 106.882 46.032 112.302C44.3825 117.722 53.337 132.332 53.337 131.625C53.337 130.918 62.2915 126.912 62.2915 126.912L57.8145 110.417L51.4515 104.997Z" fill="#6135FE"/>
<path d="M145.625 133.6L140.646 120.443H128.2L133.179 133.6" fill="#4F57A0"/>
<path d="M100.464 123.051H171.228L172.465 116.413H101.701" fill="#E2E7FF"/>
<path d="M107.964 82.823L101.702 116.413H172.465L178.583 83.6005C178.826 82.296 177.825 81.091 176.498 81.091H110.049C109.028 81.091 108.151 81.819 107.964 82.823Z" fill="#243FA7"/>
<path d="M142.821 128.856L161.555 114.895L143.175 113.834L125.855 127.266L142.821 128.856Z" fill="white"/>
<path d="M137.578 124.32L142.291 121.728C142.291 121.728 146.842 119.843 146.975 119.843C147.107 119.843 147.505 120.285 147.019 121.213C146.533 122.141 145.251 122.362 145.251 122.362L144.412 124.703L148.771 124.085L149.773 123.849C149.773 123.849 149.066 125.617 148.771 126.029C148.477 126.441 146.827 127.502 146.827 127.502C146.827 127.502 143.705 130.094 142.586 130.388C141.466 130.683 137.578 130.859 137.578 130.859L135.104 130.8L132.807 131.272C132.807 131.272 131.629 129.092 131.805 126.029L137.578 124.32Z" fill="#FF8D68"/>
<path d="M165.502 135.16L179.169 224.232H182.468L173.513 134.688L165.502 135.16Z" fill="#E2E7FF"/>
<path d="M193.307 135.16L206.974 224.232H210.273L201.319 134.688L193.307 135.16Z" fill="#E2E7FF"/>
<path d="M113.189 135.16L99.522 224.232H96.223L105.178 134.688L113.189 135.16Z" fill="#C2D3EB"/>
<path d="M85.3835 135.16L71.7165 224.232H68.4175L77.372 134.688L85.3835 135.16Z" fill="#C2D3EB"/>
<path d="M203.204 134.217H80.1995V138.459H203.204V134.217Z" fill="#A9A7E7"/>
<path d="M205.56 136.102H83.97C82.6685 136.102 81.6135 135.047 81.6135 133.745C81.6135 132.444 82.6685 131.389 83.97 131.389H205.56C206.862 131.389 207.917 132.444 207.917 133.745C207.917 135.047 206.862 136.102 205.56 136.102Z" fill="#FFC757"/>
<path d="M88.0425 215.278C88.0425 215.278 88.8155 213.385 92.047 213.722C95.2785 214.058 95.6785 214.657 96.127 216.243C96.5755 217.828 97.77 219.501 98.5285 219.835C99.2865 220.169 102.091 221.886 104.33 222.148C106.568 222.409 106.881 223.754 106.418 224.395C105.955 225.036 97.59 225.94 95.7275 225.783C95.7275 225.783 89.4305 225.967 87.926 225.546C86.422 225.126 87.9495 215.901 88.0425 215.278Z" fill="#201360"/>
<path d="M88.8995 201.709L87.9295 216.479C87.9295 216.479 90.232 217.221 91.9845 218.505C94.574 220.402 96.6945 218.105 96.6945 218.105L97.2785 208.811L88.8995 201.709Z" fill="#FF8D68"/>
<path d="M107.652 175.69L98.108 216.691C98.108 216.691 93.1595 217.398 87.1505 214.571C87.1505 214.571 92.4525 176.044 92.806 173.569C93.1595 171.095 106.945 173.569 107.652 175.69Z" fill="#6135FE"/>
<path d="M68.9661 69.612C68.9661 69.612 72.884 70.342 75.459 76.112C78.034 81.882 77.4145 94.5485 76.058 96.124C74.7015 97.6995 70.2445 97.428 63.982 95.812C57.365 94.105 54.73 87.5185 53.278 83.1555C50.4965 74.8 57.3096 65.559 68.9661 69.612Z" fill="#FF8D68"/>
<path d="M58.0891 103.383L60.3425 92.5885C60.3425 92.5885 66.143 90.4705 70.102 94.168L71.449 95.8115L71.9076 102.713C71.9076 102.713 65.8276 104.354 58.0891 103.383Z" fill="#FF8D68"/>
<path d="M57.963 169.766C57.963 169.766 70.5905 173.461 85.568 172.951C100.546 172.441 102.528 168.195 102.995 164.146C103.462 160.097 91.811 157.634 86.743 156.303C81.675 154.973 64.3475 149.99 59.6615 155.044C54.976 160.098 53.886 166.312 57.963 169.766Z" fill="#201360"/>
<path d="M123.036 215.278C123.036 215.278 123.809 213.385 127.04 213.722C130.272 214.058 130.672 214.657 131.12 216.243C131.569 217.828 132.763 219.501 133.522 219.835C134.28 220.169 137.084 221.886 139.323 222.148C141.561 222.409 141.874 223.754 141.411 224.395C140.947 225.036 132.583 225.94 130.721 225.783C130.721 225.783 124.424 225.967 122.919 225.546C121.415 225.126 122.942 215.901 123.036 215.278Z" fill="#201360"/>
<path d="M119.316 202.788L122.851 217.162C122.851 217.162 125.678 216.455 127.328 217.869C128.977 219.283 132.041 218.341 132.041 218.341L129.449 207.03L119.316 202.788Z" fill="#FF8D68"/>
<path d="M90.0965 154.718C90.8035 154.718 114.839 162.729 119.552 166.264C124.265 170.034 131.805 212.037 132.276 212.98C132.748 213.922 125.443 216.514 120.73 215.807C120.494 214.865 109.419 179.46 109.419 177.103C109.419 177.103 90.5675 176.161 82.5555 174.747C74.544 173.333 69.124 173.097 65.825 164.379C62.526 155.66 81.8485 154.953 81.8485 154.953L90.0965 154.718Z" fill="#6135FE"/>
<path d="M131.216 123.731C131.216 123.731 135.811 123.613 136.164 124.085C136.518 124.556 138.167 128.798 136.636 130.565C135.34 131.507 135.34 131.507 135.34 131.507H131.334L131.216 123.731Z" fill="#E2E7FF"/>
<path d="M57.2835 101.817L58.5205 98.6355C58.5205 98.6355 65.943 96.338 72.3055 99.1655C73.896 100.756 74.78 103.231 74.78 103.231L57.2835 101.817Z" fill="#E2E7FF"/>
<path d="M55.693 102.17C55.693 102.17 56.6355 100.521 58.285 100.285C59.9345 100.05 67.475 99.107 72.4235 100.521C74.3085 101.228 75.251 102.17 75.251 102.17C75.251 102.17 82.32 104.527 84.6765 105.94C87.033 107.354 87.74 118.194 88.211 121.728C88.682 125.263 87.2685 129.033 87.2685 129.033C87.2685 129.033 92.924 152.126 92.924 155.425C92.924 158.724 91.039 162.494 84.441 164.85C77.843 167.207 59.9345 166.264 53.8075 162.494C51.9225 158.724 49.0945 113.952 48.6235 109.71C48.1525 105.469 55.693 102.17 55.693 102.17Z" fill="#6135FE"/>
<path d="M80.7885 104.998C80.7885 104.998 82.556 103.937 86.7975 106.765C91.039 109.593 102.703 120.197 104.117 120.904C105.531 121.611 132.748 123.025 132.748 123.025C132.748 123.025 136.636 127.973 132.394 131.861C132.394 131.861 106.12 132.922 101.172 132.568C96.223 132.215 79.728 122.671 79.728 122.671C79.728 122.671 73.0125 112.774 80.7885 104.998Z" fill="#6135FE"/>
<path d="M75.1241 120.594C75.1241 120.594 97.1591 132.163 99.7301 132.53C102.301 132.897 112.033 132.53 112.033 132.53" stroke="#1B2048" stroke-width="0.41315" stroke-miterlimit="10"/>
<path d="M104.872 123.532C104.872 123.532 105.606 127.572 103.035 129.959" stroke="#1B2048" stroke-width="0.41315" stroke-miterlimit="10"/>
<path d="M106.524 122.43C106.524 122.43 108.728 125.919 107.626 128.49" stroke="#1B2048" stroke-width="0.41315" stroke-miterlimit="10"/>
<path d="M74.9401 116.003C74.9401 116.003 73.1036 109.576 79.5306 105.353" stroke="#1B2048" stroke-width="0.41315" stroke-miterlimit="10"/>
<path d="M51.2525 109.944C51.2525 109.944 49.967 121.329 49.967 126.654" stroke="#1B2048" stroke-width="0.41315" stroke-miterlimit="10"/>
<path d="M57.863 102.415C57.863 102.415 66.31 101.68 73.2875 102.415" stroke="#1B2048" stroke-width="0.41315" stroke-miterlimit="10"/>
<path d="M113.135 176.416C113.135 176.416 117.175 175.131 118.644 168.888" stroke="#1B2048" stroke-width="0.41315" stroke-miterlimit="10"/>
<path d="M115.889 176.967C115.889 176.967 118.276 176.233 119.378 172.927" stroke="#1B2048" stroke-width="0.41315" stroke-miterlimit="10"/>
<path d="M101.199 184.129L95.139 214.427" stroke="#1B2048" stroke-width="0.41315" stroke-miterlimit="10"/>
<path d="M74.603 77.251C74.603 77.251 75.31 80.432 72.482 82.553L72.6585 86.0875C72.6585 86.0875 73.719 89.2685 73.012 89.622C72.305 89.9755 72.1285 89.445 72.1285 89.445C72.1285 89.445 69.831 85.7335 69.124 85.557C68.417 85.38 70.7145 90.5055 70.7145 90.5055C70.7145 90.5055 68.417 94.04 64.1755 94.57L65.059 93.333C65.059 93.333 63.115 94.57 60.1105 94.3935C57.106 94.2165 54.8085 89.622 54.8085 89.622C54.8085 89.622 55.3385 90.859 54.8085 91.3895C54.2785 91.9195 51.274 87.3245 51.097 81.4925L50.2135 83.26C50.2135 83.26 50.39 79.195 51.981 74.6C53.5715 70.005 60.641 66.647 64.529 66.647C68.417 66.647 72.305 67.0005 73.3655 66.647C74.426 66.2935 73.8955 69.298 73.8955 69.298C73.8955 69.298 74.4255 68.061 74.6025 67.0005C75.3095 66.4705 76.37 70.712 76.0165 72.3025C75.663 73.893 75.663 73.893 75.663 73.893C75.663 73.893 76.9 72.3025 77.077 71.4185C77.784 71.242 77.6075 75.13 74.603 77.251Z" fill="#201360"/>
<path d="M72.0385 86.056C72.0385 86.056 71.3245 83.69 69.3645 84.934C67.405 86.178 70.1885 91.749 71.8275 91.2685C73.467 90.788 72.4695 86.9555 72.0385 86.056Z" fill="#FF634D"/>
<path d="M143.764 127.03L148.771 126.029L149.773 123.849" stroke="#E66657" stroke-width="0.64025" stroke-miterlimit="10"/>
<path d="M148.594 126.146C148.594 126.146 146.061 128.267 145.708 128.444C145.354 128.621 143.764 129.033 143.764 129.033" stroke="#E66657" stroke-width="0.64025" stroke-miterlimit="10"/>
<path d="M71.245 92.0375C71.245 92.0375 70.538 94.5115 74.7795 95.9255" stroke="#E66657" stroke-width="0.64025" stroke-miterlimit="10"/>
<path d="M167.858 110.653H130.156L134.868 86.1465H172.571L167.858 110.653Z" fill="#2E60BE"/>
<path d="M118.041 94.63C117.906 95.3325 118.444 95.984 119.159 95.984H160.204C160.75 95.984 161.22 95.5965 161.323 95.06L161.927 91.919H118.562L118.041 94.63Z" fill="#26C6F8"/>
<path d="M165.187 67.797H124.142C123.596 67.797 123.126 68.1845 123.023 68.721L118.562 91.9195H161.927L166.305 69.1515C166.44 68.4485 165.902 67.797 165.187 67.797Z" fill="#CAE5FF"/>
<path d="M137.125 96.0015C137.665 94.511 137.999 93.4455 137.999 93.4455C137.999 93.4455 139.237 86.9745 133.722 88.6345C133.722 88.6345 131.809 90.0695 130.909 93.108C130.629 94.0515 130.296 95.0595 129.968 96.0015H137.125Z" fill="#387AB6"/>
<path d="M148.546 96.0015C148.445 92.811 148.247 90.2525 147.902 89.563C146.889 87.706 142.754 86.018 142.754 86.018L137.099 86.862C137.099 86.862 134.735 87.537 133.976 89.2255C133.721 89.793 133.103 92.553 132.444 96.002L148.546 96.0015Z" fill="#DCE4FF"/>
<path d="M138.064 82.189C138.064 82.189 137.722 84.7185 136.97 86.5645C136.97 86.5645 136.765 88 139.773 87.385C142.781 86.7695 142.371 85.2655 142.371 85.2655V79.318L138.064 82.189Z" fill="#FF8D68"/>
<path d="M133.841 75.935C133.841 75.935 133.875 81.5905 135.498 84.315C136.606 85.461 140.384 83.661 141.973 81.2295C143.563 78.798 143.532 75.14 142.274 73.1035C141.016 71.067 136.873 71.6795 135.659 72.383C134.445 73.086 133.773 75.0305 133.841 75.935Z" fill="#FF8D68"/>
<path d="M141.473 79.1295C141.473 79.1295 142.54 77.486 143.253 78.4645C143.967 79.443 141.496 81.4445 141.307 80.683C141.118 79.9215 141.473 79.1295 141.473 79.1295Z" fill="#FBA894"/>
<path d="M133.841 75.935C133.841 75.935 131.857 74.1905 134.25 71.9345C135.617 70.909 136.301 71.661 137.736 71.3875C139.172 71.114 141.77 71.3875 142.727 72.8915C143.684 74.3955 143.342 77.882 143.069 78.224C142.795 78.566 141.975 78.771 141.975 79.386C141.975 80.0015 141.838 80.48 141.633 80.48C141.428 80.48 141.428 79.4545 141.428 78.7025C141.428 77.9505 141.291 76.515 140.949 75.4895C140.607 74.464 139.035 74.5325 138.42 74.669C137.805 74.8055 137.398 76.3805 133.841 75.935Z" fill="#713336"/>
<path opacity="0.53" d="M141.29 77.634C141.29 77.634 141.335 77.6115 141.404 77.583C141.403 77.581 141.403 77.5775 141.403 77.5775L141.29 77.634Z" fill="#505E83"/>
<path d="M141.403 77.583C141.416 77.695 141.774 80.9695 140.474 81.882C139.124 82.7825 139.068 81.629 137.998 81.46C136.929 81.291 136.057 81.3475 135.579 82.051C135.157 82.7545 135.241 83.064 134.847 82.867C134.763 83.092 135.354 84.4705 136.254 84.8365C137.155 85.202 139.293 84.077 140.249 83.233C141.206 82.389 141.797 81.8545 141.965 81.123C142.134 80.3915 142.05 78.9845 142.247 78C142.36 77.256 141.679 77.4685 141.403 77.583ZM136.48 83.6265C135.186 83.345 135.354 82.3325 136.676 81.9105C136.676 81.9105 138.083 81.2635 138.561 82.248C138.758 82.895 137.774 83.908 136.48 83.6265Z" fill="#713336"/>
<path d="M142.374 84.8365C142.374 84.8365 140.728 86.9045 138.027 87.1575C137.478 86.9465 137.183 85.9335 137.183 85.9335L136.761 86.5665C136.761 86.5665 136.55 87.8325 136.761 88.339C137.014 88.381 137.942 87.748 137.942 87.748C137.942 87.748 138.575 88.6345 139.039 88.803C139.503 88.9715 142.458 86.9885 142.753 86.0175C142.754 86.018 142.733 85.3215 142.374 84.8365Z" fill="white"/>
<path d="M148.977 96.0015C148.83 92.8565 148.642 90.4525 148.465 89.957C147.79 88.3815 145.258 86.356 142.754 86.018C142.754 86.018 141.813 90.3595 140.888 96.0015H148.977Z" fill="#387AB6"/>
<path d="M134.411 96.0015C135.737 90.3725 136.761 87.031 136.761 87.031C136.002 87.1155 134.651 87.706 133.723 88.6345C133.219 89.6425 132.436 92.5375 131.627 96.0015H134.411Z" fill="#387AB6"/>
<path d="M148.471 96.0015C148.563 92.9905 148.395 90.2065 147.903 89.563C146.299 88.2125 144.611 88.297 143.767 89.8165C143.306 90.647 142.693 93.5445 142.233 96.002L148.471 96.0015Z" fill="#387AB6"/>
<path d="M137.943 87.748C137.464 89.6975 137.068 91.669 136.709 93.644" stroke="#87B8EB" stroke-width="0.17975" stroke-miterlimit="10"/>
<path d="M168.925 72.275C172.903 68.7622 173.907 63.3996 171.168 60.2973C168.429 57.1951 162.983 57.5279 159.005 61.0407C155.027 64.5535 154.022 69.9161 156.762 73.0184C159.501 76.1206 164.946 75.7878 168.925 72.275Z" fill="#9578FE"/>
<path d="M174.172 75.768C173.852 77.0505 172.553 78.0905 171.27 78.0905C169.988 78.0905 169.207 77.0505 169.527 75.768C169.847 74.4855 171.146 73.4455 172.428 73.4455C173.711 73.4455 174.491 74.485 174.172 75.768Z" fill="#9578FE"/>
<path d="M161.774 70.9645C161.507 70.9645 161.265 70.8625 161.112 70.659L158.919 67.7375C158.613 67.33 158.778 66.6695 159.287 66.262C159.796 65.8545 160.457 65.8545 160.763 66.262L162.402 68.4455L168.259 63.758C168.768 63.3505 169.428 63.3505 169.734 63.758C170.04 64.1655 169.876 64.826 169.366 65.2335L162.588 70.659C162.333 70.8625 162.04 70.9645 161.774 70.9645Z" fill="white"/>
<path d="M101.608 52.5065H98.832C98.135 52.5065 97.711 51.9415 97.885 51.245L98.577 48.4695C98.751 47.7725 99.4565 47.208 100.153 47.208H102.929C103.626 47.208 104.05 47.773 103.876 48.4695L103.184 51.245C103.01 51.942 102.305 52.5065 101.608 52.5065Z" fill="#BFD9FF"/>
<path d="M99.579 60.644H96.8035C96.107 60.644 95.6825 60.079 95.8565 59.3825L96.5485 56.607C96.7225 55.9105 97.428 55.3455 98.1245 55.3455H100.9C101.597 55.3455 102.021 55.9105 101.847 56.607L101.155 59.3825C100.982 60.079 100.276 60.644 99.579 60.644Z" stroke="#A9A7E7" stroke-width="0.375" stroke-miterlimit="10"/>
<path d="M108.41 60.644H105.635C104.938 60.644 104.514 60.079 104.688 59.3825L105.38 56.607C105.554 55.9105 106.259 55.3455 106.956 55.3455H109.731C110.428 55.3455 110.852 55.9105 110.678 56.607L109.986 59.3825C109.813 60.079 109.107 60.644 108.41 60.644Z" fill="#26C6DA"/>
<path d="M117.241 60.644H114.466C113.769 60.644 113.345 60.079 113.519 59.3825L114.211 56.607C114.384 55.9105 115.09 55.3455 115.787 55.3455H118.562C119.259 55.3455 119.683 55.9105 119.509 56.607L118.817 59.3825C118.644 60.079 117.938 60.644 117.241 60.644Z" fill="white"/>
<path d="M97.503 68.9705H94.7275C94.031 68.9705 93.6065 68.4055 93.7805 67.709L94.4725 64.9335C94.6465 64.2365 95.352 63.672 96.0485 63.672H98.824C99.521 63.672 99.945 64.237 99.771 64.9335L99.079 67.709C98.9055 68.4055 98.1995 68.9705 97.503 68.9705Z" fill="#26C6DA"/>
<path d="M95.2855 77.8645H92.51C91.813 77.8645 91.389 77.2995 91.563 76.603L92.255 73.8275C92.4285 73.131 93.1345 72.566 93.831 72.566H96.6065C97.303 72.566 97.7275 73.131 97.5535 73.8275L96.8615 76.603C96.6875 77.3 95.982 77.8645 95.2855 77.8645Z" fill="white"/>
<path d="M106.334 68.9705H103.559C102.862 68.9705 102.438 68.4055 102.612 67.709L103.304 64.9335C103.477 64.2365 104.183 63.672 104.88 63.672H107.655C108.352 63.672 108.776 64.237 108.602 64.9335L107.91 67.709C107.737 68.4055 107.031 68.9705 106.334 68.9705Z" fill="#EDF4FF"/>
<path d="M102.465 84.488H99.6895C98.9925 84.488 98.5685 83.923 98.7425 83.2265L99.4345 80.451C99.6085 79.7545 100.314 79.1895 101.011 79.1895H103.786C104.483 79.1895 104.907 79.7545 104.733 80.451L104.041 83.2265C103.868 83.923 103.162 84.488 102.465 84.488Z" stroke="#A9A7E7" stroke-width="0.375" stroke-miterlimit="10"/>
<path d="M185.962 73.706H184.943C184.687 73.706 184.532 73.4985 184.596 73.243L184.85 72.224C184.914 71.968 185.172 71.761 185.428 71.761H186.447C186.703 71.761 186.858 71.9685 186.794 72.224L186.54 73.243C186.476 73.499 186.218 73.706 185.962 73.706Z" fill="#CAE5FF"/>
<path d="M185.217 76.6935H184.198C183.942 76.6935 183.787 76.486 183.851 76.2305L184.105 75.2115C184.169 74.9555 184.428 74.7485 184.683 74.7485H185.702C185.958 74.7485 186.114 74.956 186.05 75.2115L185.796 76.2305C185.732 76.486 185.473 76.6935 185.217 76.6935Z" fill="#CAE5FF"/>
<path d="M188.459 76.6935H187.44C187.184 76.6935 187.029 76.486 187.093 76.2305L187.347 75.2115C187.411 74.9555 187.67 74.7485 187.925 74.7485H188.944C189.2 74.7485 189.356 74.956 189.292 75.2115L189.038 76.2305C188.974 76.486 188.715 76.6935 188.459 76.6935Z" fill="#CAE5FF"/>
<path d="M191.701 76.6935H190.682C190.426 76.6935 190.271 76.486 190.335 76.2305L190.589 75.2115C190.653 74.9555 190.912 74.7485 191.167 74.7485H192.186C192.442 74.7485 192.598 74.956 192.534 75.2115L192.28 76.2305C192.216 76.486 191.957 76.6935 191.701 76.6935Z" fill="#CAE5FF"/>
<path d="M184.455 79.75H183.436C183.18 79.75 183.025 79.5425 183.089 79.287L183.343 78.268C183.407 78.012 183.666 77.805 183.921 77.805H184.94C185.196 77.805 185.352 78.0125 185.288 78.268L185.034 79.287C184.97 79.5425 184.711 79.75 184.455 79.75Z" fill="#CAE5FF"/>
<path d="M183.641 83.015H182.622C182.366 83.015 182.211 82.8075 182.275 82.552L182.529 81.533C182.593 81.277 182.852 81.07 183.107 81.07H184.126C184.382 81.07 184.538 81.2775 184.474 81.533L184.22 82.552C184.156 82.808 183.897 83.015 183.641 83.015Z" fill="#CAE5FF"/>
<path d="M187.697 79.75H186.678C186.422 79.75 186.267 79.5425 186.331 79.287L186.585 78.268C186.649 78.012 186.908 77.805 187.163 77.805H188.182C188.438 77.805 188.594 78.0125 188.53 78.268L188.276 79.287C188.212 79.5425 187.953 79.75 187.697 79.75Z" fill="#CAE5FF"/>
<path d="M186.277 85.4465H185.258C185.002 85.4465 184.846 85.239 184.91 84.9835L185.164 83.9645C185.228 83.7085 185.487 83.5015 185.743 83.5015H186.762C187.018 83.5015 187.173 83.709 187.109 83.9645L186.855 84.9835C186.792 85.2395 186.533 85.4465 186.277 85.4465Z" fill="#CAE5FF"/>
<path opacity="0.9" d="M185.636 112.312H152.137C151.785 112.312 151.527 111.98 151.616 111.639L154.743 99.6235C154.805 99.3865 155.019 99.221 155.264 99.221H188.763C189.115 99.221 189.372 99.5535 189.283 99.8945L186.156 111.91C186.095 112.147 185.881 112.312 185.636 112.312Z" fill="#BFD9FF"/>
<path d="M156.731 101.791H168.388" stroke="#A9C2FF" stroke-width="0.538" stroke-miterlimit="10" stroke-linecap="round" stroke-linejoin="round"/>
<path d="M155.834 107.171H167.491" stroke="#A9C2FF" stroke-width="0.538" stroke-miterlimit="10" stroke-linecap="round" stroke-linejoin="round"/>
<path d="M160.736 105.139H172.393" stroke="#A9C2FF" stroke-width="0.538" stroke-miterlimit="10" stroke-linecap="round" stroke-linejoin="round"/>
<path d="M156.432 103.585H159.929" stroke="#A9C2FF" stroke-width="0.538" stroke-miterlimit="10" stroke-linecap="round" stroke-linejoin="round"/>
<path d="M155.954 105.139H159.451" stroke="#A9C2FF" stroke-width="0.538" stroke-miterlimit="10" stroke-linecap="round" stroke-linejoin="round"/>
<path d="M170.241 101.791H174.395" stroke="#A9C2FF" stroke-width="0.538" stroke-miterlimit="10" stroke-linecap="round" stroke-linejoin="round"/>
<path d="M172.276 109.695H166.072C166.041 109.695 166.018 109.666 166.026 109.635L166.304 108.569C166.309 108.548 166.328 108.533 166.35 108.533H172.554C172.585 108.533 172.608 108.562 172.6 108.593L172.323 109.66C172.317 109.681 172.298 109.695 172.276 109.695Z" stroke="#84AEE5" stroke-width="0.17935" stroke-miterlimit="10"/>
<path d="M164.565 109.695H158.361C158.33 109.695 158.307 109.666 158.315 109.635L158.593 108.569C158.598 108.548 158.617 108.533 158.639 108.533H164.843C164.874 108.533 164.897 108.562 164.889 108.593L164.611 109.66C164.606 109.681 164.587 109.695 164.565 109.695Z" stroke="#84AEE5" stroke-width="0.17935" stroke-miterlimit="10"/>
<path d="M183.18 108.148C182.862 107.725 181.572 107.417 181.216 106.993C181.034 106.777 181.034 106.375 181.077 106.034C181.204 105.953 181.31 105.871 181.372 105.796C181.479 105.639 181.6 105.421 181.721 105.181C181.758 105.217 181.807 105.244 181.87 105.243C182.039 105.238 182.684 104.36 182.518 104.157C182.423 104.04 182.269 104.141 182.155 104.249C182.326 103.858 182.446 103.559 182.446 103.559H182.439C182.455 103.509 182.47 103.46 182.483 103.41C182.739 102.384 182.114 101.552 181.088 101.552C180.062 101.552 179.023 102.384 178.767 103.41C178.755 103.461 178.745 103.51 178.737 103.559H178.73C178.73 103.559 178.701 103.858 178.677 104.249C178.616 104.142 178.513 104.041 178.36 104.157C178.093 104.36 178.3 105.238 178.467 105.243C178.529 105.245 178.592 105.217 178.646 105.181C178.647 105.421 178.659 105.639 178.688 105.796C178.719 105.888 178.808 105.989 178.925 106.088C178.798 106.417 178.603 106.788 178.328 106.993C177.761 107.417 176.317 107.725 175.788 108.148C175.312 108.529 174.887 109.642 174.807 109.862H183.308C183.336 109.642 183.466 108.529 183.18 108.148Z" fill="#387AB6"/>
<path d="M140.214 108.027H112.726C110.313 108.027 108.844 106.071 109.446 103.658C110.047 101.245 112.491 99.288 114.905 99.288H142.393C144.806 99.288 146.274 101.245 145.673 103.658C145.071 106.071 142.627 108.027 140.214 108.027Z" fill="white"/>
<path d="M115.642 104.799L114.463 105.346C114.352 105.398 114.258 105.315 114.304 105.205L114.793 104.045C114.811 104.002 114.808 103.958 114.784 103.927L114.146 103.105C114.086 103.027 114.163 102.893 114.277 102.877L115.484 102.707C115.529 102.701 115.574 102.674 115.603 102.634L116.387 101.579C116.461 101.479 116.603 101.479 116.627 101.579L116.885 102.634C116.895 102.674 116.926 102.701 116.968 102.707L118.091 102.877C118.196 102.893 118.207 103.027 118.108 103.105L117.06 103.927C117.021 103.957 116.995 104.002 116.992 104.045L116.902 105.205C116.893 105.314 116.758 105.398 116.673 105.346L115.767 104.799C115.732 104.778 115.686 104.778 115.642 104.799Z" fill="#FFA402"/>
<path d="M121.445 104.799L120.267 105.346C120.156 105.398 120.062 105.315 120.108 105.205L120.596 104.045C120.615 104.002 120.611 103.958 120.587 103.927L119.949 103.105C119.889 103.027 119.967 102.893 120.08 102.877L121.288 102.707C121.333 102.701 121.377 102.674 121.407 102.634L122.191 101.579C122.265 101.479 122.406 101.479 122.431 101.579L122.689 102.634C122.698 102.674 122.729 102.701 122.771 102.707L123.894 102.877C124 102.893 124.01 103.027 123.912 103.105L122.864 103.927C122.825 103.957 122.799 104.002 122.796 104.045L122.705 105.205C122.697 105.314 122.561 105.398 122.476 105.346L121.571 104.799C121.536 104.778 121.489 104.778 121.445 104.799Z" fill="#FFA402"/>
<path d="M127.249 104.799L126.07 105.346C125.959 105.398 125.865 105.315 125.911 105.205L126.4 104.045C126.418 104.002 126.415 103.958 126.391 103.927L125.753 103.105C125.693 103.027 125.77 102.893 125.884 102.877L127.091 102.707C127.136 102.701 127.181 102.674 127.21 102.634L127.994 101.579C128.068 101.479 128.21 101.479 128.234 101.579L128.492 102.634C128.501 102.674 128.532 102.701 128.574 102.707L129.697 102.877C129.803 102.893 129.813 103.027 129.714 103.105L128.666 103.927C128.627 103.957 128.602 104.002 128.598 104.045L128.508 105.205C128.499 105.314 128.364 105.398 128.279 105.346L127.373 104.799C127.339 104.778 127.293 104.778 127.249 104.799Z" fill="#FFA402"/>
<path d="M133.052 104.799L131.874 105.346C131.763 105.398 131.669 105.315 131.715 105.205L132.203 104.045C132.222 104.002 132.218 103.958 132.194 103.927L131.556 103.105C131.496 103.027 131.574 102.893 131.687 102.877L132.894 102.707C132.939 102.701 132.984 102.674 133.013 102.634L133.798 101.579C133.872 101.479 134.013 101.479 134.037 101.579L134.295 102.634C134.305 102.674 134.336 102.701 134.378 102.707L135.501 102.877C135.606 102.893 135.617 103.027 135.518 103.105L134.47 103.927C134.431 103.957 134.406 104.002 134.402 104.045L134.312 105.205C134.303 105.314 134.168 105.398 134.083 105.346L133.177 104.799C133.143 104.778 133.097 104.778 133.052 104.799Z" fill="#FFA402"/>
<path d="M138.856 104.799L137.677 105.346C137.566 105.398 137.472 105.315 137.518 105.205L138.007 104.045C138.025 104.002 138.022 103.958 137.998 103.927L137.36 103.105C137.3 103.027 137.377 102.893 137.491 102.877L138.698 102.707C138.743 102.701 138.787 102.674 138.817 102.634L139.601 101.579C139.675 101.479 139.816 101.479 139.841 101.579L140.099 102.634C140.108 102.674 140.139 102.701 140.181 102.707L141.304 102.877C141.41 102.893 141.42 103.027 141.321 103.105L140.273 103.927C140.234 103.957 140.209 104.002 140.205 104.045L140.115 105.205C140.106 105.314 139.971 105.398 139.886 105.346L138.98 104.799C138.947 104.778 138.9 104.778 138.856 104.799Z" fill="#C2D4D9"/>
<path d="M72.622 91.1675C73.8771 91.1675 74.8945 89.7494 74.8945 88C74.8945 86.2506 73.8771 84.8325 72.622 84.8325C71.3669 84.8325 70.3495 86.2506 70.3495 88C70.3495 89.7494 71.3669 91.1675 72.622 91.1675Z" fill="#202F7C"/>
<path d="M72.966 88.2755C72.966 88.2755 79.301 95.299 79.301 96.401C79.301 97.5025 77.235 97.365 77.235 97.365" stroke="#202F7C" stroke-width="0.5509" stroke-miterlimit="10"/>
<path d="M77.7175 97.365C77.7175 97.8215 77.3475 98.1915 76.891 98.1915C76.4345 98.1915 76.0645 97.8215 76.0645 97.365C76.0645 96.9085 76.4345 96.5385 76.891 96.5385C77.3475 96.5385 77.7175 96.9085 77.7175 97.365Z" fill="#202F7C"/>
<path d="M61.702 179.577C63.952 183.459 71.0105 186.293 79.375 186.293C87.7395 186.293 94.798 183.459 97.048 179.577H61.702Z" fill="#4F57A0"/>
<path d="M109.419 159.666L105.178 179.224H102.586L104.942 160.137L109.419 159.666Z" fill="#A9A7E7"/>
<path d="M117.195 161.316H79.226V156.602H113.425C115.507 156.602 117.195 158.29 117.195 160.372L117.195 161.316Z" fill="#7A82CC"/>
<path d="M48.1525 177.104L38.963 132.908C38.598 131.152 39.9385 129.504 41.7315 129.504H72.14C73.815 129.504 75.2595 130.68 75.6005 132.319L84.912 177.103" fill="#A9A7E7"/>
<path d="M110.601 181.952H52.855C50.9065 181.952 49.1915 180.665 48.646 178.794L48.153 177.104H110.602V181.952H110.601Z" fill="#A9A7E7"/>
<path d="M82.2025 184.173H77.6075V225.174H82.2025V184.173Z" fill="#E2E7FF"/>
<path d="M82.2025 191.772L77.6075 195.484V184.173H82.2025V191.772Z" fill="#4F57A0"/>
<path d="M82.0615 219.064H80.381H79.961H78.2805L61.0555 225.902H99.2865L82.0615 219.064Z" fill="#E2E7FF"/>
<path d="M43.0135 132.527H70.3465" stroke="#4F57A0" stroke-width="0.5" stroke-miterlimit="10"/>
<path d="M73.18 135.694L77.8465 159.194" stroke="#4F57A0" stroke-width="0.5" stroke-miterlimit="10"/>
<path d="M78.68 163.361L79.68 170.194" stroke="#4F57A0" stroke-width="0.5" stroke-miterlimit="10"/>
<path d="M206.102 93.0275H184.092C182.957 93.0275 182.09 92.0135 182.267 90.892L182.434 89.837C182.576 88.939 183.35 88.2775 184.259 88.2775H206.268C207.403 88.2775 208.27 89.292 208.093 90.413L207.927 91.468C207.785 92.366 207.011 93.0275 206.102 93.0275Z" fill="#CAE5FF"/>
<path d="M185.014 90.694H204.014" stroke="white" stroke-miterlimit="10"/>
<path d="M125.933 65.694H119.933C117.079 65.694 114.274 68.007 113.668 70.8605C113.061 73.714 114.883 76.027 117.736 76.027H119.039C120.494 79.473 123.932 79.027 123.932 79.027C123.282 77.7315 123.143 76.6945 123.148 76.027H123.736C126.59 76.027 129.395 73.714 130.001 70.8605C130.608 68.0075 128.786 65.694 125.933 65.694Z" fill="#FF634D"/>
<path d="M117.38 69.861H123.047" stroke="white" stroke-miterlimit="10"/>
<path d="M116.902 72.111H126.11" stroke="white" stroke-miterlimit="10"/>
</g>
<defs>
<clipPath id="clip0_20_443">
<rect width="250" height="250" fill="white" transform="translate(0.5)"/>
</clipPath>
</defs>
</svg>
